/vscmnt/brussel_pixiu_data/_data_brussel/112/vsc11236/PredSimResults/SUBJ07opt3D/trackIG/worker_13.mot
version=1
nRows=4
nColumns=50
inDegrees=yes
endheader
                time	         pelvis_tilt	         pelvis_list	     pelvis_rotation	           pelvis_tx	           pelvis_ty	           pelvis_tz	       hip_flexion_r	     hip_adduction_r	      hip_rotation_r	        knee_angle_r	       ankle_angle_r	         mtp_angle_r	       hip_flexion_l	     hip_adduction_l	      hip_rotation_l	        knee_angle_l	       ankle_angle_l	         mtp_angle_l	    lumbar_extension	      lumbar_bending	     lumbar_rotation	 ercspn_r/activation	 intobl_r/activation	 extobl_r/activation	    abd_r/activation	    add_r/activation	hamstrings_r/activation	bifemsh_r/activation	glut_max_r/activation	iliopsoas_r/activation	rect_fem_r/activation	  vasti_r/activation	gastroc_r/activation	 soleus_r/activation	tib_ant_r/activation	 ercspn_l/activation	 intobl_l/activation	 extobl_l/activation	    abd_l/activation	    add_l/activation	hamstrings_l/activation	bifemsh_l/activation	glut_max_l/activation	iliopsoas_l/activation	rect_fem_l/activation	  vasti_l/activation	gastroc_l/activation	 soleus_l/activation	tib_ant_l/activation	
          0.77979022	        -11.10356711	         -1.41119234	          3.06636988	          1.40362239	          0.85384061	         -0.00165435	         32.09973003	          1.11692970	          0.59270069	         -2.97841415	          5.51159323	          0.41125800	         -7.91428141	          0.17428593	          3.20945594	        -15.08409401	         -5.13278946	         35.55836496	        -13.27365220	          2.02405535	         -6.38943375	          0.15554362	          0.03008292	          0.00999999	          0.08320209	          0.19381793	          0.26061357	          0.31691490	          0.06230784	          0.02890112	          0.00999999	          0.00999999	          0.01129964	          0.00999999	          0.68710714	          0.12074920	          0.00999999	          0.00999999	          0.01746245	          0.07914945	          0.02370003	          0.01000018	          0.01630270	          0.56714384	          0.04296700	          0.01630270	          0.18081855	          0.14563735	          0.00999999	
          0.78758812	        -11.07116010	         -1.30467277	          3.03292235	          1.41982667	          0.85175473	         -0.00106718	         31.57654791	          1.29998811	          1.12142512	         -3.45572265	          4.61662258	          0.42019169	         -8.11566565	          0.25632059	          3.03595800	        -16.67281121	         -5.82498695	         35.54673148	        -13.04496669	          2.06066773	         -6.44253277	          0.13765348	          0.02662288	          0.00999999	          0.07363245	          0.21470746	          0.23063862	          0.28046434	          0.12417157	          0.02557701	          0.00999999	          0.01276820	          0.00999999	          0.01276820	          0.60807823	          0.12286440	          0.00999999	          0.01119761	          0.01545398	          0.10592752	          0.02097414	          0.04130960	          0.01442762	          0.65624428	          0.03802507	          0.01442762	          0.16002137	          0.12888660	          0.00999999	
          0.79538602	        -11.03679350	         -1.23191974	          2.97961994	          1.43588541	          0.84963661	         -0.00050456	         31.09612889	          1.44890169	          1.68843657	         -4.53297027	          3.96535983	          0.35580584	         -7.99736913	          0.32277134	          2.87055154	        -18.83064177	         -6.47421213	         35.30861351	        -12.84364366	          2.14107703	         -6.44825108	          0.12182101	          0.02356080	          0.00999999	          0.14016630	          0.19339250	          0.20411129	          0.24820621	          0.16291465	          0.02263522	          0.00999999	          0.01129964	          0.01276820	          0.01129964	          0.74213301	          0.16003158	          0.00999999	          0.00999999	          0.01367651	          0.09374407	          0.01856176	          0.04657858	          0.01276820	          0.58076512	          0.03365154	          0.01276820	          0.14161621	          0.11406247	          0.00999999	
          0.80318392	        -11.00367175	         -1.20008930	          2.90754274	          1.45169322	          0.84764232	          0.00007653	         30.62320664	          1.62274883	          2.17259814	         -5.64061295	          3.51302947	          0.33515329	         -7.53615297	          0.36047162	          2.71289017	        -21.53878069	         -7.20745766	         34.82299949	        -12.68416647	          2.26459185	         -6.40966052	          0.13322110	          0.02085091	          0.00999999	          0.19302466	          0.17471612	          0.18063505	          0.21965831	          0.20746316	          0.02003179	          0.00999999	          0.00999999	          0.01129964	          0.00999999	          0.83033505	          0.18373433	          0.00999999	          0.00999999	          0.01210348	          0.08296192	          0.01642685	          0.09367870	          0.01129964	          0.51396734	          0.02978105	          0.01129964	          0.12532796	          0.10094336	          0.00999999	
